<svg xmlns="http://www.w3.org/2000/svg" xmlns:xlink="http://www.w3.org/1999/xlink" width="1080" zoomAndPan="magnify" viewBox="0 0 810 809.999993" height="1080" preserveAspectRatio="xMidYMid meet" version="1.2"><defs><clipPath id="e5175074b4"><path d="M 26.40625 150 L 782 150 L 782 660 L 26.40625 660 Z M 26.40625 150 "/></clipPath></defs><g id="18177d7841"><g clip-rule="nonzero" clip-path="url(#e5175074b4)"><path style=" stroke:none;fill-rule:nonzero;fill:#ffffff;fill-opacity:1;" d="M 776.066406 346.8125 C 768.824219 356.148438 756.484375 359.902344 745.269531 356.164062 L 731.625 352.554688 L 693.550781 352.496094 L 646.328125 340.695312 L 585.226562 439.941406 C 571.285156 462.589844 548.097656 477.574219 522.210938 481.378906 L 522.210938 659.457031 L 492.695312 659.457031 L 480.246094 541.40625 L 468.566406 517.433594 C 472.875 510.890625 476.125 503.546875 477.9375 495.546875 L 499.585938 400.277344 L 534.371094 400.277344 C 542.640625 400.277344 549.96875 394.964844 552.546875 387.105469 C 554.9375 379.796875 552.722656 371.761719 546.914062 366.71875 L 510.640625 335.195312 C 499.183594 325.238281 484.519531 319.757812 469.339844 319.757812 L 412.359375 319.757812 L 425.78125 339.886719 L 404.953125 369.066406 C 396.972656 380.25 384.078125 386.890625 370.335938 386.890625 L 198.367188 386.890625 C 180.585938 386.890625 163.386719 393.261719 149.894531 404.835938 C 133.425781 418.972656 123.949219 439.597656 123.949219 461.304688 L 123.949219 467.324219 C 123.949219 474.761719 129.976562 480.789062 137.414062 480.789062 L 137.414062 488.511719 L 114.949219 517.792969 L 114.949219 659.449219 L 85.433594 659.449219 L 73.632812 494.1875 L 85.433594 423.355469 L 73.632812 341.457031 L 73.632812 258.09375 C 60.613281 258.09375 50.019531 268.6875 50.019531 281.699219 L 50.019531 482.375 L 26.40625 482.375 L 26.40625 281.707031 C 26.40625 255.667969 47.585938 234.488281 73.625 234.488281 L 542.0625 234.488281 L 609.644531 223.085938 L 583.304688 197.761719 L 607.363281 197.761719 C 614.785156 197.761719 622.054688 199.867188 628.316406 203.847656 L 648.320312 216.539062 L 652.726562 215.792969 L 645.246094 198.425781 C 635.492188 175.777344 652.105469 150.542969 676.761719 150.542969 L 742.671875 150.542969 L 692.355469 170.226562 C 682.789062 173.972656 678.289062 184.941406 682.460938 194.328125 L 688.949219 208.910156 C 698.585938 207.046875 705.769531 208.574219 711.085938 216.289062 L 775.773438 312.320312 C 783.839844 322.359375 783.964844 336.632812 776.066406 346.8125 Z M 378.644531 458.863281 L 378.644531 458.753906 L 389.390625 458.753906 C 389.390625 454.398438 386.824219 450.445312 382.84375 448.671875 L 378.621094 446.800781 L 375.253906 438.933594 C 372.964844 433.570312 367.683594 430.085938 361.847656 430.085938 L 351.238281 430.085938 C 348.945312 430.085938 347.410156 432.4375 348.332031 434.535156 L 349.527344 437.257812 L 349.792969 437.910156 C 341.375 439.875 334.40625 446.136719 331.722656 454.648438 L 319.984375 491.921875 C 317.390625 500.164062 310.507812 506.34375 302.03125 508.039062 L 278.171875 512.804688 L 226.472656 453.582031 L 221.988281 460.207031 C 212.050781 474.878906 206.734375 492.207031 206.734375 509.925781 C 206.734375 531.625 214.464844 552.613281 228.554688 569.125 L 235.292969 577.023438 L 235.292969 593.148438 L 278.296875 627.199219 L 284.433594 652.289062 L 284.453125 652.289062 L 277.28125 659.457031 L 316.703125 659.457031 L 309.535156 652.289062 L 293.113281 652.289062 L 286.769531 626.511719 L 332.292969 602.410156 C 351.28125 592.359375 366.257812 576.125 374.75 556.398438 C 383.707031 535.597656 384.664062 512.21875 377.429688 490.753906 L 369.679688 467.710938 L 369.789062 467.710938 C 374.683594 467.710938 378.644531 463.742188 378.644531 458.863281 Z M 378.644531 458.863281 "/></g></g></svg>