<svg xmlns="http://www.w3.org/2000/svg" xmlns:xlink="http://www.w3.org/1999/xlink" width="1080" zoomAndPan="magnify" viewBox="0 0 810 809.999993" height="1080" preserveAspectRatio="xMidYMid meet" version="1.2"><defs><clipPath id="ae02190409"><path d="M 118 59.589844 L 336 59.589844 L 336 371 L 118 371 Z M 118 59.589844 "/></clipPath></defs><g id="ddc0f747be"><path style=" stroke:none;fill-rule:evenodd;fill:#ffffff;fill-opacity:1;" d="M 118.957031 333.84375 C 118.957031 333.84375 132.492188 750.210938 515.019531 675.515625 C 458.714844 624.957031 428.582031 552.6875 426.15625 511.449219 C 479.527344 603.121094 528.683594 663.898438 601.460938 631.851562 C 675.132812 600.695312 774.210938 483.230469 738.332031 437.648438 C 702.328125 392.066406 552.816406 360.914062 434.453125 420.15625 C 316.09375 479.402344 163.644531 443.523438 118.957031 333.84375 Z M 598.011719 436.753906 C 611.164062 436.753906 621.890625 447.351562 621.890625 460.503906 C 621.890625 473.65625 611.164062 484.253906 598.011719 484.253906 C 584.988281 484.253906 574.265625 473.65625 574.265625 460.503906 C 574.265625 447.351562 584.988281 436.753906 598.011719 436.753906 Z M 598.011719 436.753906 "/><g clip-rule="nonzero" clip-path="url(#ae02190409)"><path style=" stroke:none;fill-rule:evenodd;fill:#ffffff;fill-opacity:1;" d="M 175.265625 370.746094 C 36.988281 245.492188 178.074219 88.316406 307.285156 59.589844 C 312.136719 122.664062 272.300781 187.777344 232.59375 202.335938 C 308.308594 204.25 335.503906 278.050781 335.503906 278.050781 C 335.503906 278.050781 200.035156 228 175.265625 370.746094 Z M 175.265625 370.746094 "/></g></g></svg>