<svg xmlns="http://www.w3.org/2000/svg" xmlns:xlink="http://www.w3.org/1999/xlink" width="1080" zoomAndPan="magnify" viewBox="0 0 810 809.999993" height="1080" preserveAspectRatio="xMidYMid meet" version="1.2"><defs><clipPath id="2693c9fabb"><path d="M 39 142 L 755 142 L 755 756.726562 L 39 756.726562 Z M 39 142 "/></clipPath></defs><g id="25008f8fec"><g clip-rule="nonzero" clip-path="url(#2693c9fabb)"><path style=" stroke:none;fill-rule:nonzero;fill:#ffffff;fill-opacity:1;" d="M 617.523438 158.769531 C 619.230469 178.5 582.414062 200.648438 563.019531 201.5 C 583.929688 206.726562 615.074219 239.03125 642.039062 229.539062 C 640.390625 249.128906 625.558594 282.808594 607.703125 295.078125 C 577.378906 315.988281 518.332031 315.328125 490.515625 287.484375 C 488.453125 304.324219 492.195312 385.050781 448.472656 411.328125 C 371.488281 391.929688 362.460938 332.664062 350.574219 300.964844 C 332.582031 307.761719 309.632812 316.953125 289.054688 318.6875 C 205.957031 325.621094 157.667969 275.351562 160.035156 251.21875 C 191.210938 241.976562 244.257812 215.945312 257.574219 184.140625 C 243.820312 179.40625 222.4375 168.621094 222.4375 142.480469 C 82.445312 174.535156 39.601562 282.613281 39.601562 417.65625 C 39.601562 594.769531 199.683594 756.363281 397.324219 756.363281 C 572.261719 756.363281 754.988281 638.296875 754.988281 381.96875 C 754.988281 275.351562 718.722656 193.605469 617.523438 158.769531 Z M 617.523438 158.769531 "/></g><path style=" stroke:none;fill-rule:nonzero;fill:#ffffff;fill-opacity:1;" d="M 380.675781 174.371094 C 380.210938 177.535156 387.171875 189.640625 409.734375 189.640625 C 436.667969 189.640625 426.324219 176.488281 426.324219 176.488281 C 426.324219 176.488281 423.847656 100.632812 480.28125 50.445312 C 465.972656 38.804688 450.894531 45.023438 450.894531 45.023438 C 450.894531 45.023438 390.609375 105.859375 380.675781 174.371094 Z M 380.675781 174.371094 "/><path style=" stroke:none;fill-rule:nonzero;fill:#ffffff;fill-opacity:1;" d="M 440.054688 361.636719 C 461.652344 292.132812 450.371094 242.222656 419.199219 182.488281 C 461.847656 237.1875 528.433594 302.699219 604.316406 254.632812 C 543.480469 238.726562 553.359375 194.898438 477.804688 181.800781 C 534.484375 184.167969 559.46875 199.132812 598.238281 123.054688 C 537.207031 154.644531 502.761719 92.183594 427.257812 159.15625 C 413.914062 167.300781 399.828125 146.554688 389.070312 157.78125 C 331.867188 64.175781 261.457031 142.949219 233.691406 71.273438 C 233.691406 181.46875 343.972656 155.578125 369.972656 173.820312 C 268.773438 165.429688 284.980469 246.789062 211.515625 261.484375 C 305.175781 300.058594 362.132812 257.824219 387.5 189.640625 C 383.511719 216.304688 353.023438 309.359375 440.054688 361.636719 Z M 440.054688 361.636719 "/></g></svg>