<svg xmlns="http://www.w3.org/2000/svg" xmlns:xlink="http://www.w3.org/1999/xlink" width="1080" zoomAndPan="magnify" viewBox="0 0 810 809.999993" height="1080" preserveAspectRatio="xMidYMid meet" version="1.2"><g id="3eeb7e27d4"><path style=" stroke:none;fill-rule:nonzero;fill:#ffffff;fill-opacity:1;" d="M 396.277344 281.101562 C 398.105469 282.84375 400.472656 283.710938 402.835938 283.710938 C 405.066406 283.710938 407.28125 282.945312 409.070312 281.394531 C 411.40625 279.378906 466.257812 231.324219 467.667969 168.859375 C 469.046875 106.410156 416.429688 55.9375 414.1875 53.816406 C 410.613281 50.441406 405.101562 50.320312 401.371094 53.523438 C 399.035156 55.546875 344.203125 103.609375 342.804688 166.050781 C 341.417969 228.507812 394.03125 278.984375 396.277344 281.101562 Z M 396.277344 281.101562 "/><path style=" stroke:none;fill-rule:nonzero;fill:#ffffff;fill-opacity:1;" d="M 207.378906 567.003906 C 204.976562 566.847656 202.546875 567.691406 200.746094 569.320312 C 198.945312 570.964844 197.886719 573.265625 197.800781 575.703125 C 197.699219 579.445312 196.992188 666.589844 247.929688 721.863281 C 310.671875 789.964844 372.148438 779.410156 385.542969 777.144531 C 389.707031 776.441406 394.890625 773.121094 395.097656 768.902344 C 395.183594 767.203125 401.851562 579.402344 207.378906 567.003906 Z M 207.378906 567.003906 "/><path style=" stroke:none;fill-rule:nonzero;fill:#ffffff;fill-opacity:1;" d="M 603.113281 567.003906 C 605.515625 566.847656 607.953125 567.691406 609.746094 569.320312 C 611.554688 570.964844 612.613281 573.265625 612.691406 575.703125 C 612.804688 579.445312 613.503906 666.589844 562.5625 721.863281 C 499.820312 789.964844 438.351562 779.410156 424.949219 777.144531 C 420.789062 776.441406 415.609375 773.121094 415.394531 768.902344 C 415.300781 767.203125 408.640625 579.402344 603.113281 567.003906 Z M 603.113281 567.003906 "/><path style=" stroke:none;fill-rule:nonzero;fill:#ffffff;fill-opacity:1;" d="M 234.765625 401.382812 C 232.347656 401.160156 229.925781 401.925781 228.074219 403.511719 C 226.230469 405.097656 225.09375 407.363281 224.945312 409.800781 C 224.738281 413.125 222 490.605469 266.210938 540.738281 C 304.839844 584.527344 358.828125 595.382812 358.828125 595.382812 C 367.816406 595.382812 375.871094 596.027344 385.671875 594.667969 C 389.859375 594.097656 395.226562 590.253906 395.582031 586.050781 C 395.691406 584.570312 405.089844 417.5625 234.765625 401.382812 Z M 234.765625 401.382812 "/><path style=" stroke:none;fill-rule:nonzero;fill:#ffffff;fill-opacity:1;" d="M 575.71875 401.382812 C 578.128906 401.160156 580.558594 401.925781 582.410156 403.511719 C 584.261719 405.097656 585.382812 407.363281 585.546875 409.800781 C 585.746094 413.125 588.492188 490.605469 544.273438 540.738281 C 505.636719 584.527344 451.65625 595.382812 451.65625 595.382812 C 442.660156 595.382812 434.625 596.027344 424.820312 594.667969 C 420.632812 594.097656 415.25 590.253906 414.914062 586.050781 C 414.800781 584.570312 405.394531 417.5625 575.71875 401.382812 Z M 575.71875 401.382812 "/><path style=" stroke:none;fill-rule:nonzero;fill:#ffffff;fill-opacity:1;" d="M 379.445312 424.496094 C 379.460938 424.496094 379.460938 424.496094 379.460938 424.496094 C 381.269531 424.496094 383.0625 424.480469 384.90625 424.429688 C 389.121094 424.324219 392.710938 421.300781 393.523438 417.15625 C 393.789062 415.777344 418.730469 260.445312 261.371094 227.484375 C 258.984375 226.984375 256.503906 227.476562 254.488281 228.863281 C 252.46875 230.222656 251.082031 232.351562 250.679688 234.753906 C 250.09375 238.035156 237.050781 315.847656 279.261719 366.089844 C 301.773438 392.890625 335.484375 424.496094 379.445312 424.496094 Z M 379.445312 424.496094 "/><path style=" stroke:none;fill-rule:nonzero;fill:#ffffff;fill-opacity:1;" d="M 431.046875 424.496094 C 431.039062 424.496094 431.039062 424.496094 431.039062 424.496094 C 429.230469 424.496094 427.429688 424.480469 425.578125 424.429688 C 421.363281 424.324219 417.78125 421.300781 416.972656 417.15625 C 416.695312 415.777344 391.765625 260.445312 549.125 227.484375 C 551.507812 226.984375 553.992188 227.476562 556.007812 228.863281 C 558.023438 230.222656 559.402344 232.351562 559.8125 234.753906 C 560.398438 238.035156 573.433594 315.847656 531.230469 366.089844 C 508.71875 392.890625 475.007812 424.496094 431.046875 424.496094 Z M 431.046875 424.496094 "/></g></svg>